<?xml version="1.0" encoding="utf-8"?>
<!-- Generator: Adobe Illustrator 15.0.0, SVG Export Plug-In . SVG Version: 6.00 Build 0)  -->
<!DOCTYPE svg PUBLIC "-//W3C//DTD SVG 1.1//EN" "http://www.w3.org/Graphics/SVG/1.1/DTD/svg11.dtd">
<svg version="1.1" id="Layer_1" xmlns="http://www.w3.org/2000/svg" xmlns:xlink="http://www.w3.org/1999/xlink" x="0px" y="0px"
	 width="200px" height="52px" viewBox="0 0 200 52" enable-background="new 0 0 200 52" xml:space="preserve">
<g id="XMLID_2_">
	<g>
		<path fill="#17376e" d="M60.42,48.19c0.09,0.659-0.4,1.149,0.15,1.47c-0.51,0.45-1.23-0.13-1.61-0.3
			c-0.22,0.069,0.05,0.189,0,0.439c-0.35,0.09-1.07-0.18-1.18,0.15c-0.3-0.13-0.44-0.431-0.44-0.88c-0.5-0.12-0.61,0.27-0.87,0
			c0.18-0.91-0.47-0.99-0.59-1.61c1.1-0.07,1.41-1.479,0.88-2.34c1.02,0.49,0.6,2.42,1.32,3.22c0.27-0.52-0.2-1.56-0.3-2.2
			c0.44,0.351,1.13,0.44,1.76,0.591C59.46,47.6,59.53,48.3,60.42,48.19z"/>
		<path fill="#17376e" d="M60.42,40.87c-0.29,1.09-0.06,2.22,0,3.37c-1.04-0.471-2.17,0.14-2.34,1.02
			c-0.66-0.59-0.91-1.33-1.91-1.609c-0.3-0.08-0.59,0.159-0.88,0.149c-1.04-0.03-1.45-0.79-1.9-1.76
			c-0.32-0.021-0.07,0.52-0.15,0.729c-0.89-0.18-1.01-1.13-2.05-1.17c0.07-0.979,0.19-1.76-0.43-1.75c0.48-0.75,0.28-1.88-0.3-2.35
			c0.01-0.73,0.45-1.01,0.73-1.46c0.71,0.36,1.47,0.68,2.49,0.729c-0.24,1.41,0.93,1.421,1.18,2.341c-1.6,0.399-0.85,3.52,0.29,3.81
			c0.67,0.15,0.68-0.8,1.02-0.15c0.44-0.189,0.26-1.01,0.3-1.609c0.67-0.101,1.14-0.41,1.31-1.021
			C58.65,40.4,59.3,40.87,60.42,40.87z M53.1,41.46c0.38,0.04,0.48-0.21,0.44-0.59C53.15,40.83,53.16,41.18,53.1,41.46z"/>
		<path fill="#17376e" d="M58.66,37.06c0.82,0.44,1.59,2.421,0.3,2.931c0.99-1.681-1.91-3.45-1.76-0.88
			c-0.55,0.159-0.47-0.301-0.73-0.44C56.57,37.51,57.24,36.91,58.66,37.06z"/>
		<path fill="#17376e" d="M53.83,46.29c1.26,0.71,1.29,2.71,1.46,3.95c-2.39,0.439-5.41,0-8.34,0c-8.83,0-17.14,0.13-25.04,0.149
			c0.13-1.1,0.5-1.939,0.59-3.08c0.72-1.029,2.2-0.96,3.95-1.46c0.72-0.21,1.32-0.659,1.76-0.729c0.66-0.11,1.38,0.11,2.19,0.14
			c2.04,0.09,4.44-0.1,6.01-0.14c2.9-0.09,5.65,0.33,9.95,0.14c1.29-0.05,2.62-0.43,3.52-0.29c0.42,0.07,0.87,0.63,1.61,0.88
			C52.4,46.16,53.46,46.08,53.83,46.29z"/>
		<path fill="#17376e" d="M48.56,6.17c3.93,0.39,6.84,3.61,6.44,7.76c-0.25,2.63-1.93,4.52-4.68,4.98
			c-0.19,0.93-0.15,2.09-0.15,3.22c-0.29,0.49-0.67,0.89-0.73,1.61c0.83-0.48,1.67-1.27,1.75-2.34c0.07-0.83-0.81-1.72-0.14-2.35
			c0.55,0.19,0.57,0.9,0.73,1.47c0.45,0.71,1.25,1.09,2.49,1.02c-0.62,0.9-0.12,1.83,0.88,1.91c-0.1,0.49-0.46,0.71-0.59,1.17
			c0.12,0.47,0.44,0.74,0.44,1.32c-0.52,0.41-1.83-0.13-2.34,0.58c-0.54-0.1-0.36-0.91-0.73-1.17c-0.34,0-0.69,0-1.03,0
			c0.04-0.79,0.63-1.03,0.59-1.9c-0.64-0.04-1.22,0.63-1.76,1.02c-0.76,0.55-1.59,0.88-2.34,1.47c-0.77,0.6-1.36,1.47-1.91,2.19
			c0.42,0.5,0.87-0.97,1.18-0.58c-0.39,0.9,0.05,1.51,0.29,2.19c-1.25,0.22-1.77,1.16-2.34,2.05c-0.38-0.54-0.77-1.09-1.18-1.61
			c0.32-0.489,0.31-0.93-0.14-1.319c0.17-0.7,1.02-0.73,1.02-1.61c-2.61,0.18-5.72,1.11-8.64,1.47c0.13,0.28,0.37,2.011-0.44,2.19
			c-0.02,0.37,0.23,0.46,0.3,0.74c-0.32-1.341,1.47-1.33,1.31-2.931c1,0.351,2.02,0,2.93-0.149c-0.18,1.35,0.47,1.88,0.74,2.779
			c-0.46,0.131-0.62,0.561-1.18,0.591c-0.29,0.43,0.28,0.96,0,1.319c-1.59-0.6-2.63,0.57-3.8,0.88c0.5,1.17,0.3,3.301-0.88,3.66
			c-1.48-1.79-1.01-5.87-0.73-8.64c-1.15,0.03-2.96,0.649-4.1,1.17c0.42,0.41,1.12-0.14,1.61-0.15c-0.55,0.92,0.14,1.38,0.29,2.351
			c0.02,0.46-0.59,0.279-0.73,0.58c0.08,0.529-0.17,0.71-0.3,1.029c-0.67,0.04-0.2-1.069-0.87-1.029c0.17,1.1,0.4,3.399,0.29,5.27
			c-0.7-0.11-0.94,0.23-1.61,0.15c-0.34-0.49-0.31-1.351-0.29-2.2c-0.58,0.02-0.46,0.72-1.03,0.729c-0.76,0.08-1.17-0.189-1.76-0.29
			c-0.53,0.45-0.99,0.961-1.46,1.471c0.11,0.52,0.38,0.89,0.73,1.17c-0.12,0.41-0.76,0.31-1.02,0.58
			c-0.11,0.74,0.2,1.069,0.29,1.609c-1.54-0.39-2.3,0.69-2.93,0.74c0.31-1.34-0.8-1.25-1.46-1.62c-0.15-0.58-0.18-1.279-0.15-2.05
			c0.83-0.09,1.13-0.72,1.32-1.46c1.05,0.73,2.18-0.4,3.07,0.44c0.69-0.29,0.8-1.16,0.73-2.2C23.1,35.23,23,36.35,22.2,36.77
			c-0.23-0.84-0.66-1.489-1.17-2.05c0.43-0.84,1.09-1.63,0.44-2.779c0.81-0.271,1.61-0.53,1.9-1.32c0.68,0.25,1.01,0.85,2.05,0.729
			c0.58-0.02-0.04,0.23,0.3,0.44c0.85-0.41,1.37-1.16,2.34-1.46c-0.15-3.19-0.5-7.39-0.88-10.84c-3.4-0.32-5.52-3.26-5.56-6.44
			c-0.05-3.53,2.7-5.09,5.41-6.15c-0.44-0.68-0.96-1.28-1.9-1.46c0.09-0.4,0.61-0.37,0.59-0.88c-0.13-0.66-0.76-0.81-0.88-1.47
			c0.88-0.19,2.1-0.04,2.05-1.17c0.62-0.03,0.74,0.43,1.17,0.59c0.52-0.02,0.53-0.54,1.17-0.44c0.26,1.43,1.15,2.9,1.03,4.24
			c0.43,0,0.87,0,1.31,0c-0.47-0.54-0.55-1.49-1.02-2.05c0.41-0.91,1.34-1.29,1.46-2.48c1.46,0.39,1.23,2.48,3.52,2.05
			c-0.29,0.88-0.87,1.47-1.17,2.34c-0.56,0.11-0.7-0.18-1.18-0.15c-0.04-0.79,0.15-1.81-0.29-2.19c-0.46,0.47,0.23,2.08-0.44,2.34
			c2.22,0.25,4.47,0.69,6.45,0.58C42.14,6.58,45.41,5.86,48.56,6.17z M52.95,15.39c1.51-2.15,0.48-4.17-0.58-6
			c-1.24-0.67-2.96-1.42-4.98-1.61c-3.18-0.31-6.94,0.64-10.69,0.88c-2.55,0.16-4.99-0.28-7.03-0.3c-3.86-0.02-6.4,2.24-6.15,6.3
			c1.13,1.53,2.47,3.6,4.83,3.37c2.62-0.26,4.14-4.14,1.76-6c-2.18-0.56-4.69,0.97-2.93,2.48c0.66,0.36,0.99-0.72,1.76-0.73
			c0.34,0.39,0.91,0.55,1.02,1.17c-1.02,2.22-4.73,1.39-5.12-0.58c-0.6-2.98,1.78-4.28,3.66-4.39c5.23-0.33,6.33,8.4,1.02,9.22
			c-0.09,3.77,0.23,6.23,0.15,9.96c1.11,0.109,2.38-0.83,3.66-1.03c-0.19-0.63-1.24-0.42-1.76-0.729
			c0.51-1.541,2.71-1.391,3.52-2.641c-0.02,0.27,0.14,0.35,0.44,0.3c0.5-0.53,0.68-1.37,0.88-2.2c0.62,0.4,0.69,1.36,1.75,1.32
			c-0.16-1.38-0.38-3.27-0.44-4.69c-0.06-1.63-0.25-3.95,0-4.83c0.13-0.43,0.49-1.31,1.32-1.02c1.58,3.01,1.03,8.14,1.17,12.59
			c-0.02,0.46-0.79,0.19-0.73,0.73c2.82-0.26,5.04-1.11,7.47-1.76c-0.58-0.54-1.35-0.89-2.2-1.17c1.11-0.31,1.41-1.42,2.34-1.9
			c0.19,0.5,0.21,1.16,1.03,1.02c-0.03-1.43,0.1-3.02-0.15-4.24c-0.83-0.44-1.54-0.4-2.19-0.88c-3.04-2.22-1.57-8.46,3.22-7.76
			c1.21,0.83,2.8,1.59,2.63,3.37c-0.18,1.95-2.98,3.06-4.24,1.02c0.34-1,1.26-0.52,2.19-0.29c1.55-1.64-1.31-3.54-2.92-2.05
			c-0.34,0.31-0.76,1.63-0.74,2.34c0.07,1.85,1.78,3.5,3.96,3.08C50.57,17.6,52.26,16.39,52.95,15.39z M48.41,24.18
			c-0.39,0-0.78,0-1.17,0c0.02,0.36,0.28,0.45,0,0.73C47.73,24.77,48.3,24.7,48.41,24.18z M45.04,26.96
			C44.11,26.79,44.72,27.41,45.04,26.96L45.04,26.96z M39.04,26.81c-0.76-0.21-1-0.95-1.76-1.17c-0.06,0.33,0.46,0.8,0.15,0.88
			c-0.97-0.06-1.2-0.85-2.05-1.02c-0.25,1.34,1.94,0.96,1.76,1.75C37.79,27.12,38.74,27.29,39.04,26.81z M29.96,6.46
			c0.02-0.58-1.26-0.29-1.31,0C29.08,6.46,29.52,6.46,29.96,6.46z M28.79,33.7c0.26-0.141,0.79,0,0.73-0.44
			C29.1,33.23,28.72,33.24,28.79,33.7z M27.77,6.61C26.83,6.44,27.44,7.05,27.77,6.61L27.77,6.61z"/>
		<path fill="#17376e" d="M51.63,43.21c0.06,0.88-0.98,0.91-1.61,1.03c-5.48-0.38-11.9,0.04-18.59,0c-1.77-0.01-4.65,0.12-4.83-0.88
			c-0.2-1.07,2.05-1.66,2.92-1.761c1.64-0.18,3.56,0.15,5.57,0.301c3.73,0.27,7.66-0.301,10.54-0.301
			c-0.31-0.5-1.06-0.38-1.61-0.439c-4.64-0.46-10.66,0-15.37,0.3c-0.15-0.69-0.37-1.3-0.3-2.2c7.64,0.221,14.53-1.01,21.53-0.149
			c0.08,0.81-0.04,1.3,0.14,2.199c-1.05,0.051-1.52,0.32-2.49,0.15c0,0.4,0.69,0.37,1.03,0.44C49.34,42.06,51.58,42.34,51.63,43.21z
			"/>
		<path fill="#17376e" d="M50.17,25.06c0.32,4.32-0.02,8.72-0.15,13.03c-0.76,0.18-1.21,0.04-2.05-0.29
			c0.16-3.7,0.17-7.55,0.15-11.42c0.38-0.65,1.19-0.87,1.76-1.32C49.97,25.06,50.07,25.06,50.17,25.06z"/>
		<path fill="#17376e" d="M33.04,11.15c4.13,0.38,7.89-0.51,12.15-0.44c-0.11,0.86-0.66,1.29-1.02,1.9c-3.71,0.33-6.15,0.21-10.55,0
			C33.55,12,33.11,11.76,33.04,11.15z"/>
		<path fill="#17376e" d="M44.17,31.79c0.05,1.13,0.71,5.36-0.74,5.71c-1.66-1.13-0.81-6.45-1.02-9.81
			c0.41,0.119,0.38-0.2,0.73-0.141c0.39,0.09-0.12,2.07-0.15,2.92C43.22,31.08,43.91,31.22,44.17,31.79z"/>
		<path fill="#17376e" d="M43.87,17.44c0.11,2.54,0.2,5.64,0,8.35c-0.55,0.12-1.03,0.46-1.61,0.15c-0.07-3.81-0.93-8.35,0.15-11.57
			c0.04-0.14,0.54-0.49,0.58-0.15C43.97,14.77,43.83,16.32,43.87,17.44z"/>
		<path fill="#17376e" d="M40.21,31.94c0.34,1.72,0.14,4.13-0.14,5.71c-0.53,0.069-0.85,0.239-1.32,0
			c-0.54-0.971-0.2-2.83-0.29-4.25c0.44,0,0.87,0,1.31,0c0.13-0.521-0.57-0.971-0.14-1.311C39.76,31.97,39.96,31.93,40.21,31.94z"/>
		<path fill="#17376e" d="M35.23,14.08c0.51,3.15,0.82,7.04,0.3,10.39c-1.03-0.29-0.97,1.11-1.61,0.73c-0.36-3.62-0.46-7.34,0-10.83
			c0.12-0.03,0.14-0.15,0.29-0.15C34.4,14.02,34.85,14.08,35.23,14.08z"/>
	</g>
	<g>
	</g>
</g>
<text transform="matrix(1 0 0 1 88.9209 13.0278)"><tspan x="0" y="0" fill="#17376e" font-family="'TimesNewRomanPSMT'" font-size="14">CENTRO DE </tspan><tspan x="-8.565" y="16.8" fill="#17376e" font-family="'TimesNewRomanPSMT'" font-size="14">PSICOTERAPIA</tspan><tspan x="1.948" y="33.6" fill="#17376e" font-family="'TimesNewRomanPSMT'" font-size="14">COGNITIVA</tspan></text>
</svg>
