<svg xmlns="http://www.w3.org/2000/svg" viewBox="0 0 198.55 95.61"><defs><style>.cls-1{fill:#0082cb;fill-rule:evenodd;}</style></defs><title>Recurso 2</title><g id="Capa_2" data-name="Capa 2"><g id="Capa_1-2" data-name="Capa 1"><path class="cls-1" d="M123.13,48.93c-.09-1.16-.16-2.29-.27-3.41s-.28-2.37-.39-3.56c-.06-.61-.06-1.22-.12-1.83-.12-1.27-.27-2.54-.4-3.82,0-.29,0-.58,0-.87-.16-1.62-.34-3.25-.5-4.88,0-.19,0-.38,0-.56-.13-1.46-.27-2.92-.4-4.38-.05-.59-.05-1.19-.12-1.78-.12-1.1-.26-2.2-.38-3.31,0-.13,0-.27,0-.41-.13-1.5-.28-3-.4-4.48,0-.31,0-.62,0-.92,0-.49,0-1-.08-1.51h-.56c-4.7,0-9.39,0-14.09,0a.81.81,0,0,0-.73.41c-.67.94-1.33,1.88-2,2.82s-1.17,1.66-1.77,2.48c-1.08,1.5-2.18,3-3.26,4.5s-2.12,3-3.18,4.49-2,2.69-2.92,4-1.71,2.47-2.58,3.7-1.72,2.4-2.58,3.6l-2.93,4.08c-1,1.45-2.09,2.89-3.12,4.34s-2.06,3-3.11,4.42c-.88,1.22-1.81,2.41-2.69,3.63-.73,1-1.39,2.07-2.12,3.09-1,1.39-2.09,2.73-3,4.16a1.47,1.47,0,0,1-1.34.66c-.86.07-1.7.21-2.56.32L63,64.23l-3.15.43c-.85.12-1.69.25-2.53.39s-1.75.31-2.62.49c-1.89.38-3.78.75-5.66,1.16-.84.18-1.66.47-2.49.69s-1.54.33-2.29.54-1.75.54-2.62.83c-1.1.37-2.21.71-3.3,1.13A27.36,27.36,0,0,0,35.81,71,28.59,28.59,0,0,0,33,72.56a12.42,12.42,0,0,0-2,1.61,6.23,6.23,0,0,0-1.23,1.61,3.57,3.57,0,0,0-.24,3.07A7.85,7.85,0,0,0,32.3,82a19,19,0,0,0,4.11,2.29c1.47.66,3,1.11,4.55,1.62,1.13.38,2.28.72,3.43,1.05,1,.28,1.93.54,2.9.77,1.43.33,2.87.66,4.31.92,1.64.29,3.29.48,4.93.74,1.16.18,2.31.41,3.47.59.68.11,1.38.15,2.06.22l3.63.38c.09.56.17,1.17.29,1.78a4.25,4.25,0,0,0,1.24,2.07,4.12,4.12,0,0,0,1.93,1,4.3,4.3,0,0,0,2.38,0,4.15,4.15,0,0,0,2.38-1.61,4.36,4.36,0,0,0,.88-3.38A4.66,4.66,0,0,0,73,87.49a4.51,4.51,0,0,0-3.41-.82,4.21,4.21,0,0,0-2.32,1A3.59,3.59,0,0,0,66,89.8c-.06.31-.2.44-.51.4l-4.31-.55c-.77-.1-1.54-.16-2.31-.27-1.26-.19-2.52-.39-3.77-.62s-2.77-.51-4.14-.83-3-.75-4.5-1.18-3.08-.85-4.57-1.42-2.81-1.29-4.2-2a9.61,9.61,0,0,1-3.08-2.44A3.64,3.64,0,0,1,33.86,77a5.59,5.59,0,0,1,1.3-1.87,15,15,0,0,1,3.6-2.54,19.84,19.84,0,0,1,2.47-1.08c1.11-.44,2.22-.9,3.36-1.27,1.57-.51,3.15-1,4.75-1.39,1.24-.34,2.48-.64,3.74-.9s2.44-.45,3.66-.65c.94-.16,1.89-.27,2.84-.42s1.72-.31,2.58-.44c1.13-.17,2.26-.32,3.39-.48s2-.29,3-.4,1.86-.14,2.79-.22L76,65c.88-.08,1.75-.15,2.63-.21,1.27-.08,2.55-.11,3.81-.23.26,0,.54-.36.72-.61.78-1.13,1.52-2.28,2.28-3.42s1.63-2.38,2.44-3.58c.66-1,1.28-2,2-2.93a.76.76,0,0,1,.54-.29q10.21,0,20.41,0l.13,0V64.5c.63.08,1.22.18,1.81.23l5.86.51c.84.07,1.69.13,2.53.21s1.5.21,2.25.31,1.57.19,2.35.3q1.74.26,3.48.54c1.11.18,2.21.38,3.32.59s2,.39,3,.64c1.2.29,2.38.64,3.57,1s2.63.63,3.89,1.09c1.7.62,3.37,1.33,5,2.08a23.86,23.86,0,0,1,2.72,1.56,6.73,6.73,0,0,1,2.68,3,2.7,2.7,0,0,1-.37,2.62,9.18,9.18,0,0,1-3,2.79c-.85.52-1.75,1-2.64,1.41-.65.33-1.3.65-2,.93s-1.42.52-2.14.75c-1.4.44-2.79.9-4.2,1.28-1.66.44-3.34.82-5,1.19s-3.46.79-5.2,1.11c-1.24.23-2.5.35-3.74.53-1.76.26-3.52.55-5.28.81-.75.11-1.52.15-2.27.22l-4.34.4-.65,0a4.58,4.58,0,0,0-5-4,4.5,4.5,0,0,0,.38,9c2.38,0,4.39-1.52,4.61-4.6l2.94-.3,4.63-.5c.67-.07,1.34-.13,2-.22s1.5-.22,2.25-.31,1.64-.19,2.46-.3,1.75-.27,2.63-.41,1.66-.26,2.48-.41c1.47-.27,2.94-.52,4.39-.83s2.63-.63,3.94-1,2.82-.71,4.22-1.09c.69-.19,1.36-.45,2-.7,1-.37,2-.7,3-1.14,1.27-.57,2.52-1.21,3.75-1.86a14.15,14.15,0,0,0,1.77-1.15,6.54,6.54,0,0,0,2.61-3.35,3.58,3.58,0,0,0-.37-2.88,9.27,9.27,0,0,0-3.73-3.34A49.42,49.42,0,0,0,148.8,69c-1.26-.52-2.6-.85-3.9-1.26-.71-.23-1.41-.49-2.14-.68-1-.25-1.92-.43-2.88-.65s-2.21-.52-3.32-.75c-.76-.16-1.52-.26-2.29-.37l-4.88-.72L126.31,64a14.12,14.12,0,0,1-1.44-.24.7.7,0,0,1-.44-.44c-.11-.84-.15-1.68-.23-2.52-.13-1.31-.28-2.61-.4-3.92,0-.41,0-.82,0-1.23-.12-1.22-.26-2.44-.39-3.66,0-.12,0-.24,0-.36-.08-1.1-.08-1.1,1.05-1.1h62.78c.49,0,.68.12.81.61a4.89,4.89,0,0,0,3.25,3.42,5.51,5.51,0,0,0,4.58-.4,5,5,0,0,0,2.42-2.92,4.63,4.63,0,0,0-.19-3.57A5.26,5.26,0,0,0,194.94,45a5.69,5.69,0,0,0-2.76-.21,4.75,4.75,0,0,0-3.62,2.47c-.24.47-.4,1-.62,1.45a.5.5,0,0,1-.28.23,1.35,1.35,0,0,1-.41,0H123.13ZM95.31,45.42l14.39-21.19.21.05c0,1.43,0,2.86,0,4.28.06,1.73.23,3.45.29,5.17.1,2.82.14,5.65.22,8.47,0,1.07.08,2.14.13,3.21Z"/><path class="cls-1" d="M75.51,21.73c-.48-1-.88-1.81-1.32-2.65-.15-.28-.41-.5-.55-.78s-.5-.37-.85-.37c-11.62,0-23.23,0-34.85,0a2.17,2.17,0,0,0-1.84.82c-.73.92-1.37,1.92-2.12,3H47.9a6.46,6.46,0,0,0,2.55-.3,10.69,10.69,0,0,1,4.68-.61,9,9,0,0,1,3,.55,4.93,4.93,0,0,0,1.81.34c4.94,0,9.87,0,14.8,0Z"/><path class="cls-1" d="M69.53,53.86H65.48c-3,0-6,0-9,0a2.16,2.16,0,0,0-1.7.56,6.12,6.12,0,0,1-2.58,1.34,14.72,14.72,0,0,1-4.44.57,19.79,19.79,0,0,1-5.55-.69A6.28,6.28,0,0,1,39.05,54a.59.59,0,0,0-.4-.16H24.1l-.15,0c.1.7.17,1.42.3,2.12a4.88,4.88,0,0,0,.42,1.21c.07.15.33.23.51.31a.84.84,0,0,0,.31,0H66.93a.89.89,0,0,0,.94-.62c.35-.73.81-1.41,1.21-2.12C69.24,54.54,69.36,54.23,69.53,53.86Z"/><path class="cls-1" d="M65.19,59.93h-39a9.26,9.26,0,0,0,2.22,2.24c.57.4,1.14.81,1.75,1.16a2,2,0,0,0,.95.26l19.33,0a14,14,0,0,0,2.93-.44c1-.22,2.12-.33,3.19-.49l1.94-.31L61.34,62l1.45-.21a.52.52,0,0,0,.23-.07L65.25,60Z"/><path class="cls-1" d="M35.79,36.11c.6.48,1.18,1,1.79,1.45.82.63,1.66,1.25,2.5,1.86a.82.82,0,0,0,.45.16H64.89l.18,0c-.47-.34-.9-.65-1.34-.94s-1.11-.73-1.69-1.05-1.19-.57-1.79-.86a2.79,2.79,0,0,1-.56-.32,2.35,2.35,0,0,0-1.62-.4H35.84Z"/><path class="cls-1" d="M70.62,15.65c-1.16-.63-2.3-1.31-3.5-1.87a13.7,13.7,0,0,0-3.45-1.2c-.92-.16-1.81-.45-2.73-.65a7.85,7.85,0,0,0-1.43-.24c-1.72-.06-3.45-.15-5.17-.09a28.27,28.27,0,0,0-3.49.49c-1,.15-1.92.3-2.86.54a24.35,24.35,0,0,0-2.55.86c-.87.33-1.71.71-2.57,1.06s-1.82.74-2.71,1.19H70.59Z"/><path class="cls-1" d="M119.16,4.77A4.43,4.43,0,0,0,116.43.57,5.69,5.69,0,0,0,114.12,0a7.34,7.34,0,0,0-2,.3,5.19,5.19,0,0,0-2.28,1.41,4.17,4.17,0,0,0-1.18,2.54A4.47,4.47,0,0,0,111,8.81a5.63,5.63,0,0,0,3.71.65,5.17,5.17,0,0,0,3.32-1.69A3.83,3.83,0,0,0,119.16,4.77Z"/><path class="cls-1" d="M45.3,42.06l1.49.78c1.6.85,3.2,1.7,4.81,2.54a1.87,1.87,0,0,0,.8.26q8.66,0,17.31,0l.33,0c-.15-.37-.28-.72-.43-1.06a6.42,6.42,0,0,0-1.68-2.38.89.89,0,0,0-.53-.22h-22Z"/><path class="cls-1" d="M32.45,30.11l1.47,3.61H53.78l0-.09-1.37-.72c-.83-.45-1.68-.88-2.49-1.38s-1.27-.92-1.92-1.38a.67.67,0,0,0-.37-.11H32.77Z"/><path class="cls-1" d="M185.76,17.93h-.56c-4.66,0-9.32,0-14,0a2,2,0,0,0-1.48.6l-3.11,2.94s0,.15-.08.28h.59c4.68,0,9.35,0,14,0a2,2,0,0,0,1.51-.65q1.08-1.1,2.18-2.18c.31-.3.64-.57,1-.85Z"/><path class="cls-1" d="M172.74,15.78h.54c4.82,0,9.63,0,14.45,0a1.43,1.43,0,0,0,1.06-.52c.84-.81,1.7-1.6,2.55-2.41.23-.22.45-.44.67-.66l-.06-.12h-.44c-4.87,0-9.73,0-14.6,0-.69,0-1,.55-1.39.91C174.57,13.85,173.7,14.8,172.74,15.78Z"/><path class="cls-1" d="M153.94,33.74h14.77a1.42,1.42,0,0,0,1.13-.42c1-1,2.14-2,3.22-3,.06-.05.1-.12.22-.25H158.14a1,1,0,0,0-.8.33c-1,1-2.06,2-3.1,3C154.16,33.45,154.1,33.55,153.94,33.74Z"/><path class="cls-1" d="M179.51,24c-4.68,0-9.29,0-13.89,0a3.12,3.12,0,0,0-2.7,1.13,26.82,26.82,0,0,1-2.28,2.17,3.41,3.41,0,0,1-.44.3l.11.13h15a1,1,0,0,0,.8-.33c1.07-1,2.17-2.06,3.26-3.09C179.43,24.22,179.45,24.13,179.51,24Z"/><path class="cls-1" d="M12.84,21.71H26.72c.36-1.1.71-2.18,1.07-3.26.13-.39,0-.51-.46-.51H17.06c-.84,0-1.68,0-2.52,0-.38,0-.62,0-.75.5-.25,1-.63,2-1,3A1.17,1.17,0,0,0,12.84,21.71Z"/><path class="cls-1" d="M157.27,21.7l1.1-3.75h-14l-1.15,3.75Z"/><path class="cls-1" d="M70.62,48H55.43a9.28,9.28,0,0,1,1,1.66,10,10,0,0,1,.31,2h.38c4.15,0,8.29,0,12.44,0,.46,0,.61-.16.75-.6A9.52,9.52,0,0,0,70.62,48Z"/><path class="cls-1" d="M178.61,63.56,177.7,61s-.06,0-.07-.08c-.1-1-.78-1-1.6-1-4,0-8,0-12,0h-.67c.11.4.17.74.29,1.07.27.77.54,1.54.85,2.29a.59.59,0,0,0,.43.32q6.81,0,13.61,0Z"/><path class="cls-1" d="M156.57,42l1.13,2.88a.41.41,0,0,1,.05.14c0,.78.57.65,1.07.65H172c-.43-1.15-.84-2.24-1.24-3.32a.46.46,0,0,0-.5-.38h-13.4Z"/><path class="cls-1" d="M139.58,33.74h1.8c3.9,0,7.81,0,11.71,0,.41,0,.57-.09.65-.54a21.62,21.62,0,0,1,.64-2.14c.1-.32.17-.64.27-1h-.54c-4.31,0-8.63,0-12.94,0-.46,0-.57.15-.65.59a17.61,17.61,0,0,1-.62,2Z"/><path class="cls-1" d="M150,45.63,151.1,42h-.6c-4.28,0-8.56,0-12.84,0a.63.63,0,0,0-.73.56c-.25.93-.58,1.84-.87,2.76a1.85,1.85,0,0,0,0,.36Z"/><path class="cls-1" d="M161.05,53.86c.26.77.49,1.46.73,2.14a8.73,8.73,0,0,1,.43,1.1c.09.43.33.46.69.46h13.47c-.39-1-.84-2-1.11-3-.19-.7-.59-.7-1.14-.7-4.13,0-8.26,0-12.39,0Z"/><path class="cls-1" d="M137.81,39.58h14l1.12-3.68h-.59c-4.28,0-8.56,0-12.85,0a.66.66,0,0,0-.76.58C138.44,37.49,138.13,38.5,137.81,39.58Z"/><path class="cls-1" d="M154.39,35.93c.41,1.2.79,2.36,1.22,3.5,0,.11.35.16.54.16h13.53l-1.31-3.66Z"/><path class="cls-1" d="M21.32,39.56l1.06-3.64-.43,0c-4.37,0-8.73,0-13.1,0a.55.55,0,0,0-.61.45c-.32,1.07-.61,2.14-.92,3.23Z"/><path class="cls-1" d="M160.08,12.11H146.18L145,15.78h13.1c.87,0,.89,0,1.17-.81s.53-1.76.78-2.63A.77.77,0,0,0,160.08,12.11Z"/><path class="cls-1" d="M18.67,48h-.58c-4.16,0-8.33,0-12.49,0-.58,0-.88.13-1,.71-.26,1-.58,1.94-.89,3l.5,0c4.34,0,8.67,0,13,0a.6.6,0,0,0,.64-.46c.32-1,.59-1.94.87-2.92A1.1,1.1,0,0,0,18.67,48Z"/><path class="cls-1" d="M20.58,42H20c-4.27,0-8.54,0-12.8,0a.72.72,0,0,0-.81.57Q6,43.86,5.54,45.23a1.63,1.63,0,0,0,0,.39l.45,0h13a.59.59,0,0,0,.66-.46C19.93,44.14,20.24,43.09,20.58,42Z"/><path class="cls-1" d="M0,63.54a4.76,4.76,0,0,0,.56.06c4.3,0,8.6,0,12.89,0,.46,0,.61-.18.71-.57.27-1,.57-2.05.87-3.11h-14Z"/><path class="cls-1" d="M14.55,15.76h14l1.14-3.65-.49,0c-4.31,0-8.63,0-12.95,0a.64.64,0,0,0-.72.52C15.19,13.62,14.88,14.66,14.55,15.76Z"/><path class="cls-1" d="M133.47,53.89l-1.14,3.63.5,0c4.33,0,8.67,0,13,0,.48,0,.61-.18.71-.63.24-1,.58-2,.88-3Z"/><path class="cls-1" d="M10.23,30.07,9.08,33.74H22.58c.41,0,.56-.09.66-.53A23.35,23.35,0,0,1,23.93,31c.09-.28.15-.58.23-.9Z"/><path class="cls-1" d="M141.49,27.68h13.36c.43,0,.66-.06.75-.58a18.24,18.24,0,0,1,.66-2.14c.09-.3.15-.61.24-1h-13c-1.05,0-1,0-1.33,1-.23.81-.47,1.63-.7,2.44A1.43,1.43,0,0,0,141.49,27.68Z"/><path class="cls-1" d="M26,24H12.59c-.33,0-.52,0-.62.45-.28,1.07-.67,2.12-1,3.25h.58c4.28,0,8.56,0,12.84,0,.46,0,.63-.13.75-.59.22-.85.56-1.66.84-2.49A3.5,3.5,0,0,0,26,24Z"/><path class="cls-1" d="M16.86,53.88H3L1.82,57.52l.46,0q6.53,0,13.06,0c.36,0,.55-.1.65-.46.25-.92.53-1.82.79-2.74A3.68,3.68,0,0,0,16.86,53.88Z"/><path class="cls-1" d="M32.37,27.66H46.18a16.23,16.23,0,0,1,.29-1.91,15.07,15.07,0,0,1,.7-1.76h-.47c-4.38,0-8.77,0-13.16,0a.57.57,0,0,0-.65.46,11.8,11.8,0,0,0-.53,2.85C32.36,27.4,32.37,27.52,32.37,27.66Z"/><path class="cls-1" d="M24,51.7H36.88c.89,0,1,0,1-.85A8,8,0,0,1,38.75,48h-.57c-4.28,0-8.56,0-12.84,0a.64.64,0,0,0-.75.58c-.14.67-.3,1.33-.44,2C24.07,50.92,24,51.27,24,51.7Z"/><path class="cls-1" d="M61.87,24a6.1,6.1,0,0,1-.15,3.66h.58c4.14,0,8.29,0,12.43,0,.5,0,.62-.14.64-.63,0-.84.19-1.67.29-2.5a4.91,4.91,0,0,0,0-.54Z"/><path class="cls-1" d="M130.83,62.43c1.77.36,3.52.72,5.28,1.06a6.46,6.46,0,0,0,1.21.12h6.42c.83,0,.83,0,1-.83s.42-1.47.63-2.21c.06-.21.09-.42.14-.66H132.12c-.35,0-.57,0-.66.47A20.23,20.23,0,0,1,130.83,62.43Z"/><path class="cls-1" d="M25.08,58.41a1.12,1.12,0,0,0,1.2.8q19.58,0,39.16,0c.5,0,1,.08,1.13-.6,0-.05.13-.08.31-.19Z"/><path class="cls-1" d="M37.92,17.29H72.73a2.46,2.46,0,0,0-2.17-.92q-15.39,0-30.78,0A2.34,2.34,0,0,0,37.92,17.29Z"/><path class="cls-1" d="M168.53,34.36H140c-.68,0-.79.11-.82.92h.6c9.13,0,18.27,0,27.41,0A1.25,1.25,0,0,0,168.53,34.36Z"/><path class="cls-1" d="M34.64,34.36c.28.77.48.92,1.19.92H56.92a4.21,4.21,0,0,0-2.5-.95c-6.37.05-12.74,0-19.12,0Z"/><path class="cls-1" d="M67.15,41.23a1.73,1.73,0,0,0-1.31-.73q-11.61,0-23.23,0h-.49a3.71,3.71,0,0,0,1.78.73q11.26,0,22.51,0Z"/><path class="cls-1" d="M171.19,17.32h.56c4.56,0,9.11,0,13.67,0,.79,0,1.58.1,1.94-.87a1.64,1.64,0,0,0-.31-.05c-4.92,0-9.83,0-14.75,0-.4,0-.8.46-1.2.71Z"/><path class="cls-1" d="M53.44,46.5c.41.24.64.7,1.24.7,5.14,0,10.28,0,15.42,0l.4,0c-.11-.79-.12-.79-.81-.79H53.5Z"/><path class="cls-1" d="M23.87,53.2h14.5c-.18-.84-.23-.88-1-.88H24.62C23.78,52.32,23.78,52.32,23.87,53.2Z"/><path class="cls-1" d="M160.61,52.32c.21.92.21.92,1,.92h13.29c-.12-.81-.24-.92-.94-.92H160.61Z"/><path class="cls-1" d="M17.31,52.34l-.4,0H3.82c-.24,0-.5-.08-.57.32-.1.59-.13.6.48.6H16.57C17.31,53.24,17.41,53.13,17.31,52.34Z"/><path class="cls-1" d="M147.73,53.24l.16-.89-.5,0q-6.53,0-13.05,0a.69.69,0,0,0-.52.23c-.29.53-.18.68.42.68h13.49Z"/><path class="cls-1" d="M14.07,17.3H28.13l.17-.91H15.23C14.32,16.39,14.32,16.39,14.07,17.3Z"/><path class="cls-1" d="M158.71,16.39h-13c-.9,0-.9,0-1.14.92H158C158.76,17.32,158.82,17.25,158.71,16.39Z"/><path class="cls-1" d="M22.8,34.36H9.6c-.81,0-.81,0-1,.92h13.2C22.63,35.28,22.63,35.28,22.8,34.36Z"/><path class="cls-1" d="M175,28.4h-.64c-4.75,0-9.5,0-14.24,0a2,2,0,0,0-1.57.84h.65c4.78,0,9.56,0,14.35,0A1.57,1.57,0,0,0,175,28.4Z"/><path class="cls-1" d="M70,52.33H56.21l-.42.81a4,4,0,0,0,.61.09H69.13C69.86,53.24,70,53.14,70,52.33Z"/><path class="cls-1" d="M47,29.19c-.26-.79-.26-.79-1-.79H32.39v.79Z"/><path class="cls-1" d="M131.86,59.17h14l.17-.77-.51,0h-13C131.89,58.38,131.79,58.51,131.86,59.17Z"/><path class="cls-1" d="M1.28,59.2H14.82c.6,0,.71-.13.64-.82h-.55c-4.26,0-8.53,0-12.79,0C1.57,58.36,1.27,58.51,1.28,59.2Z"/><path class="cls-1" d="M158.28,46.38l.33.78h14.07l-.3-.78Z"/><path class="cls-1" d="M149.69,46.38h-14l-.2.8h13.48C149.54,47.19,149.67,47.06,149.69,46.38Z"/><path class="cls-1" d="M24.52,29.21l.14-.77h-14l-.21.77Z"/><path class="cls-1" d="M162.8,58.38l.32.79h14.06c-.16-.47-.25-.81-.89-.81-4.28,0-8.57,0-12.85,0Z"/><path class="cls-1" d="M5,47.19H18.37c.69,0,.69,0,.82-.82H5.74C5,46.37,5,46.37,5,47.19Z"/><path class="cls-1" d="M141,29.2h14l.15-.8H141.7C141.06,28.4,141,28.5,141,29.2Z"/><path class="cls-1" d="M164.85,23.27h.41c4.91,0,9.83,0,14.75,0,.37,0,.73-.31,1.1-.48l-.05-.21h-.52c-4.76,0-9.52,0-14.29,0A1.4,1.4,0,0,0,164.85,23.27Z"/><path class="cls-1" d="M47.38,64.34h-15l0,.09.66.2a7.57,7.57,0,0,0,2.6.53c2.81,0,5.62,0,8.42,0a11.09,11.09,0,0,0,2-.35c.48-.1,1-.21,1.44-.32Z"/><path class="cls-1" d="M60.93,22.59a1.15,1.15,0,0,0,1.24.7c4.32,0,8.64,0,13,0h.58c0-.23,0-.44-.05-.68Z"/><path class="cls-1" d="M48.17,22.55h-.39c-4.57,0-9.14,0-13.72,0-.5,0-.64.24-.68.73H34c4.44,0,8.87,0,13.3,0C47.83,23.29,48,23,48.17,22.55Z"/><path class="cls-1" d="M156.16,40.53c0,.56.24.71.78.71,4.3,0,8.6,0,12.9,0h.51c.09-.48,0-.72-.53-.72H156.3Z"/><path class="cls-1" d="M137.32,41.23h.52c4.3,0,8.6,0,12.89,0,.56,0,.76-.2.79-.73H151c-4.28,0-8.56,0-12.84,0C137.6,40.5,137.25,40.56,137.32,41.23Z"/><path class="cls-1" d="M21,40.53H6.9v.7H7.5c4.25,0,8.5,0,12.75,0C20.81,41.25,21,41,21,40.53Z"/><path class="cls-1" d="M12.35,23.27H25.77c.66,0,.66,0,.61-.72h-.49c-4.31,0-8.63,0-12.95,0C12.42,22.54,12.25,22.72,12.35,23.27Z"/><path class="cls-1" d="M142.86,23.25l.45,0c4.33,0,8.66,0,13,0,.53,0,.67-.2.58-.71l-.44,0h-13C142.82,22.55,142.79,22.58,142.86,23.25Z"/></g></g></svg>