<svg xmlns="http://www.w3.org/2000/svg" xml:space="preserve" class="logo-svg" version="1.1" style="shape-rendering:geometricPrecision; text-rendering:geometricPrecision; image-rendering:optimizeQuality; fill-rule:evenodd; clip-rule:evenodd"
viewBox="0 0 49.82 69.28"
 xmlns:xlink="http://www.w3.org/1999/xlink"

 <g id="Layer_x0020_1">
  <metadata id="CorelCorpID_0Corel-Layer"/>
  <g id="_2669859064032">
   <polygon class="fil0" points="10.23,45.36 16.22,45.36 16.22,16.24 28.38,29.48 28.38,19.96 10.23,0 "/>
   <polygon class="fil0" points="39.54,11.97 33.55,11.97 33.55,41.09 21.39,27.85 21.39,37.37 39.54,57.33 "/>
   <path class="fil0" d="M4.76 63.34l0 5.88 -0.4 0c-0.06,0 -0.12,-0.01 -0.16,-0.03 -0.04,-0.02 -0.08,-0.06 -0.13,-0.11l-3.4 -4.43c0.01,0.07 0.01,0.13 0.01,0.2 0,0.07 0,0.13 0,0.18l0 4.19 -0.7 0 0 -5.88 0.41 0c0.04,0 0.07,0 0.09,0.01 0.02,0 0.05,0.01 0.07,0.02 0.02,0.01 0.04,0.02 0.06,0.04 0.02,0.02 0.04,0.04 0.06,0.07l3.4 4.42c-0.01,-0.07 -0.01,-0.14 -0.01,-0.21 -0,-0.07 -0.01,-0.13 -0.01,-0.19l0 -4.16 0.7 0z"/>
   <path class="fil0" d="M10.58 68.58c0.24,0 0.46,-0.04 0.65,-0.12 0.19,-0.08 0.35,-0.2 0.49,-0.34 0.13,-0.15 0.23,-0.32 0.3,-0.53 0.07,-0.2 0.1,-0.43 0.1,-0.68l0 -3.57 0.79 0 0 3.57c0,0.34 -0.05,0.65 -0.16,0.94 -0.11,0.29 -0.26,0.54 -0.46,0.75 -0.2,0.21 -0.45,0.38 -0.74,0.5 -0.29,0.12 -0.61,0.18 -0.98,0.18 -0.36,0 -0.69,-0.06 -0.98,-0.18 -0.29,-0.12 -0.54,-0.29 -0.74,-0.5 -0.2,-0.21 -0.36,-0.46 -0.47,-0.75 -0.11,-0.29 -0.16,-0.6 -0.16,-0.94l0 -3.57 0.79 0 0 3.57c0,0.25 0.03,0.47 0.1,0.68 0.07,0.2 0.17,0.38 0.3,0.53 0.13,0.15 0.3,0.26 0.49,0.35 0.19,0.08 0.41,0.13 0.65,0.13z"/>
   <polygon class="fil0" points="20.36,64.01 18.46,64.01 18.46,69.21 17.67,69.21 17.67,64.01 15.76,64.01 15.76,63.34 20.36,63.34 "/>
   <path class="fil0" d="M24.91 66.18c0.23,0 0.43,-0.03 0.61,-0.08 0.18,-0.06 0.32,-0.14 0.44,-0.24 0.12,-0.1 0.21,-0.22 0.27,-0.37 0.06,-0.14 0.09,-0.3 0.09,-0.47 0,-0.35 -0.11,-0.61 -0.34,-0.79 -0.23,-0.18 -0.57,-0.27 -1.03,-0.27l-0.87 0 0 2.22 0.84 0zm2.71 3.03l-0.71 0c-0.14,0 -0.25,-0.06 -0.32,-0.17l-1.53 -2.1c-0.05,-0.07 -0.1,-0.11 -0.15,-0.14 -0.05,-0.03 -0.14,-0.04 -0.25,-0.04l-0.6 0 0 2.45 -0.79 0 0 -5.88 1.66 0c0.37,0 0.69,0.04 0.96,0.11 0.27,0.08 0.49,0.18 0.67,0.33 0.18,0.14 0.31,0.31 0.39,0.51 0.08,0.2 0.13,0.43 0.13,0.67 0,0.21 -0.03,0.4 -0.1,0.58 -0.07,0.18 -0.16,0.34 -0.29,0.49 -0.12,0.14 -0.28,0.27 -0.46,0.37 -0.18,0.1 -0.38,0.18 -0.61,0.23 0.1,0.06 0.19,0.14 0.26,0.25l1.71 2.33z"/>
   <polygon class="fil0" points="30.47,69.21 31.27,69.21 31.27,63.34 30.47,63.34 "/>
   <polygon class="fil0" points="35.61,63.98 35.61,66.04 38.03,66.04 38.03,66.69 35.61,66.69 35.61,69.21 34.82,69.21 34.82,63.34 38.44,63.34 38.44,63.98 "/>
   <polygon class="fil0" points="41.5,69.21 42.3,69.21 42.3,63.34 41.5,63.34 "/>
   <polygon class="fil0" points="49.82,64.01 47.92,64.01 47.92,69.21 47.13,69.21 47.13,64.01 45.22,64.01 45.22,63.34 49.82,63.34 "/>
  </g>
 </g>
</svg>